<svg
  viewBox="0 0 24 24"
  xmlns="http://www.w3.org/2000/svg"
  aria-hidden="true"
>
  <path
    fill="#C8C8C8"
    d="M4.3880707,3.17638951 L20.4789623,11.1029371 C20.9743965,11.3469933 21.1781786,11.9464687 20.9341223,12.4419029 C20.8367142,12.6396414 20.6767008,12.7996548 20.4789623,12.8970629 L4.3743554,20.8303668 C3.87892124,21.074423 3.27944584,20.870641 3.03538961,20.3752068 C2.90852242,20.1176664 2.89846393,19.8180217 3.00777474,19.5525533 L6.12545221,11.9794521 L6.12845221,11.9204521 L3.02294371,4.4577144 C2.81072167,3.94783182 3.05202321,3.36245036 3.56190579,3.15022831 C3.82818088,3.03939996 4.12934099,3.04893645 4.3880707,3.17638951 Z M5.892,6.146 L7.91045221,10.9964521 L11.0011069,11.0000006 C11.5533913,11.0006119 12.0006107,11.4488225 12,12.0011069 C11.9993881,12.5533913 11.5511775,13.0006107 10.9988931,13 L7.86945221,12.9964521 L5.865,17.866 L17.773,12 L5.892,6.146 Z"
  ></path>
</svg>
